<?xml version="1.0" encoding="utf-8"?>
<!-- Generator: Adobe Illustrator 24.1.1, SVG Export Plug-In . SVG Version: 6.00 Build 0)  -->
<svg version="1.1" id="Livello_1" xmlns="http://www.w3.org/2000/svg" xmlns:xlink="http://www.w3.org/1999/xlink" x="0px" y="0px"
	 viewBox="0 0 841.89 595.28" style="enable-background:new 0 0 841.89 595.28;" xml:space="preserve">
<style type="text/css">
	.st0{fill:#615F59;}
	.st1{fill:#790E17;}
	.st2{fill:#C21A26;}
	.st3{fill:#E8A99B;}
</style>
<g>
	<g>
		<path class="st0" d="M265.88,279.6c-0.01,6.45-1.63,12.56-4.8,18.34c-3.16,5.79-7.48,10.42-12.94,13.9
			c-5.46,3.48-11.42,5.22-17.86,5.21c-6.45-0.01-12.4-1.76-17.85-5.25c-5.45-3.49-9.76-8.13-12.91-13.93
			c-3.15-5.79-4.72-11.91-4.71-18.35l-15.79-0.02c-0.01,9.08,2.31,17.56,6.98,25.46c4.66,7.9,10.93,14.19,18.82,18.86
			c7.89,4.68,16.37,7.02,25.44,7.03c9.08,0.01,17.56-2.31,25.46-6.98c7.9-4.66,14.18-10.93,18.86-18.82
			c4.68-7.89,7.06-16.37,7.07-25.44v-69.05l-15.78-0.05V279.6z"/>
		<polygon class="st0" points="318.4,315.5 318.4,274.06 385.48,274.06 385.48,260.25 318.4,260.25 318.4,224.74 387.51,224.74 
			387.51,210.92 302.61,210.92 302.61,329.3 389.37,329.3 389.37,315.5 		"/>
	</g>
	<polygon class="st1" points="448.64,261.12 437.21,253.66 437.21,207.1 424.98,224.8 424.98,272.35 432.77,275.7 407.34,299.05 
		407.34,330.27 419.94,332.7 453.64,284.9 453.64,256.39 	"/>
	<g>
		<polygon class="st2" points="591.88,315.5 591.88,274.06 658.97,274.06 658.97,260.25 591.88,260.25 591.88,224.74 661,224.74 
			661,210.92 576.1,210.92 576.1,329.3 662.85,329.3 662.85,315.5 		"/>
		<polygon class="st2" points="437.21,207.1 437.21,253.66 448.64,261.12 453.64,256.39 501.03,284.94 539.51,246.44 539.51,329.07 
			555.25,329.07 555.25,207.1 496.24,266.1 		"/>
		<polygon class="st2" points="419.94,332.7 504.16,327.9 525.88,310.64 453.64,284.9 		"/>
	</g>
	<polygon class="st3" points="453.64,256.39 453.64,284.9 525.88,310.64 525.83,299.88 	"/>
	<g>
		<g>
			<path class="st2" d="M407.31,343.6h10.2c1.86,0,3.29,0.48,4.28,1.43c1,0.95,1.5,2.29,1.5,4.01c0,0.82-0.2,1.61-0.61,2.38
				s-0.88,1.34-1.43,1.7c0.7,0.34,1.33,1.03,1.89,2.06c0.55,1.03,0.83,2.05,0.83,3.04c0,1.7-0.54,3.09-1.62,4.17
				c-1.08,1.08-2.46,1.62-4.17,1.62h-10.88V343.6z M417.17,352.1c1.13,0,1.98-0.28,2.55-0.85c0.57-0.57,0.85-1.3,0.85-2.21
				c0-0.91-0.28-1.64-0.85-2.21c-0.57-0.57-1.42-0.85-2.55-0.85h-7.14v6.12H417.17z M417.51,361.62c1.18,0,2.1-0.31,2.75-0.92
				s0.99-1.44,0.99-2.48c0-1.06-0.33-1.96-1-2.67c-0.67-0.71-1.58-1.07-2.74-1.07h-7.48v7.14H417.51z"/>
			<path class="st2" d="M433.87,362.91c-1.61-0.95-2.89-2.23-3.84-3.84s-1.43-3.37-1.43-5.27c0-1.9,0.48-3.66,1.43-5.27
				s2.23-2.89,3.84-3.84c1.61-0.95,3.37-1.43,5.27-1.43c1.9,0,3.66,0.48,5.27,1.43c1.61,0.95,2.89,2.23,3.84,3.84
				s1.43,3.37,1.43,5.27c0,1.9-0.48,3.66-1.43,5.27s-2.23,2.89-3.84,3.84s-3.37,1.43-5.27,1.43
				C437.23,364.34,435.48,363.87,433.87,362.91z M443.1,360.86c1.19-0.74,2.13-1.73,2.82-2.99s1.04-2.61,1.04-4.06
				c0-1.45-0.35-2.8-1.04-4.06c-0.69-1.26-1.63-2.26-2.82-2.99c-1.19-0.74-2.51-1.11-3.96-1.11c-1.45,0-2.77,0.37-3.96,1.11
				c-1.19,0.74-2.13,1.73-2.82,2.99c-0.69,1.26-1.04,2.61-1.04,4.06c0,1.45,0.34,2.81,1.04,4.06c0.69,1.26,1.63,2.26,2.82,2.99
				c1.19,0.74,2.51,1.1,3.96,1.1C440.59,361.96,441.91,361.59,443.1,360.86z"/>
			<path class="st2" d="M459.57,362.91c-1.61-0.95-2.89-2.23-3.84-3.84s-1.43-3.37-1.43-5.27c0-1.9,0.48-3.66,1.43-5.27
				s2.23-2.89,3.84-3.84c1.61-0.95,3.37-1.43,5.27-1.43c1.52,0,2.89,0.25,4.11,0.77c1.22,0.51,2.35,1.27,3.37,2.29l-1.7,1.7
				c-1.97-1.59-3.9-2.38-5.78-2.38c-1.45,0-2.77,0.37-3.96,1.11c-1.19,0.74-2.13,1.73-2.82,2.99c-0.69,1.26-1.04,2.61-1.04,4.06
				c0,1.45,0.34,2.81,1.04,4.06c0.69,1.26,1.63,2.26,2.82,2.99c1.19,0.74,2.51,1.1,3.96,1.1c1.88,0,3.81-0.79,5.78-2.38l1.7,1.7
				c-1.16,0.95-2.33,1.7-3.54,2.24s-2.52,0.82-3.94,0.82C462.94,364.34,461.18,363.87,459.57,362.91z"/>
			<path class="st2" d="M482.55,362.91c-1.61-0.95-2.89-2.23-3.84-3.84s-1.43-3.37-1.43-5.27c0-1.9,0.48-3.66,1.43-5.27
				s2.23-2.89,3.84-3.84c1.61-0.95,3.37-1.43,5.27-1.43c1.52,0,2.89,0.25,4.11,0.77c1.22,0.51,2.35,1.27,3.37,2.29l-1.7,1.7
				c-1.97-1.59-3.9-2.38-5.78-2.38c-1.45,0-2.77,0.37-3.96,1.11c-1.19,0.74-2.13,1.73-2.82,2.99c-0.69,1.26-1.04,2.61-1.04,4.06
				c0,1.45,0.34,2.81,1.04,4.06c0.69,1.26,1.63,2.26,2.82,2.99c1.19,0.74,2.51,1.1,3.96,1.1c1.88,0,3.81-0.79,5.78-2.38l1.7,1.7
				c-1.16,0.95-2.33,1.7-3.54,2.24s-2.52,0.82-3.94,0.82C485.92,364.34,484.16,363.87,482.55,362.91z"/>
			<path class="st2" d="M505.54,362.91c-1.61-0.95-2.89-2.23-3.84-3.84s-1.43-3.37-1.43-5.27c0-1.9,0.48-3.66,1.43-5.27
				s2.23-2.89,3.84-3.84c1.61-0.95,3.37-1.43,5.27-1.43c1.9,0,3.66,0.48,5.27,1.43c1.61,0.95,2.89,2.23,3.84,3.84
				s1.43,3.37,1.43,5.27c0,1.9-0.48,3.66-1.43,5.27s-2.23,2.89-3.84,3.84s-3.37,1.43-5.27,1.43
				C508.91,364.34,507.15,363.87,505.54,362.91z M514.77,360.86c1.19-0.74,2.13-1.73,2.82-2.99s1.04-2.61,1.04-4.06
				c0-1.45-0.35-2.8-1.04-4.06c-0.69-1.26-1.63-2.26-2.82-2.99c-1.19-0.74-2.51-1.11-3.96-1.11c-1.45,0-2.77,0.37-3.96,1.11
				c-1.19,0.74-2.13,1.73-2.82,2.99c-0.69,1.26-1.04,2.61-1.04,4.06c0,1.45,0.34,2.81,1.04,4.06c0.69,1.26,1.63,2.26,2.82,2.99
				c1.19,0.74,2.51,1.1,3.96,1.1C512.26,361.96,513.58,361.59,514.77,360.86z"/>
			<path class="st2" d="M530.05,349.72V364h-2.72v-21.08l14.96,14.96V343.6h2.72v21.08L530.05,349.72z"/>
			<path class="st2" d="M552.36,343.6h2.72V364h-2.72V343.6z"/>
		</g>
		<g>
			<path class="st0" d="M410.02,388.52c-1.08-0.48-1.97-1.18-2.65-2.08l1.4-1.17c0.05,0.05,0.29,0.29,0.73,0.74s1.01,0.82,1.72,1.13
				c0.71,0.31,1.45,0.47,2.23,0.47c0.5,0,1.03-0.08,1.6-0.23c0.57-0.16,1.07-0.42,1.5-0.81c0.43-0.38,0.64-0.89,0.64-1.53
				c0-0.47-0.18-0.85-0.54-1.16c-0.36-0.3-0.8-0.54-1.32-0.71c-0.52-0.17-1.25-0.37-2.19-0.61c-1.14-0.28-2.06-0.55-2.76-0.8
				c-0.7-0.25-1.3-0.62-1.8-1.11s-0.75-1.13-0.75-1.93c0-0.72,0.23-1.38,0.68-1.98s1.1-1.08,1.95-1.45
				c0.85-0.37,1.84-0.55,2.98-0.55c1.92,0,3.56,0.55,4.91,1.64l-0.94,1.4c-0.58-0.44-1.17-0.78-1.79-1.03
				c-0.62-0.25-1.34-0.37-2.19-0.37c-0.51,0-1.06,0.08-1.65,0.26c-0.58,0.17-1.08,0.43-1.48,0.78c-0.41,0.35-0.61,0.78-0.61,1.3
				c0,0.41,0.16,0.74,0.49,1c0.33,0.27,0.74,0.48,1.23,0.63c0.49,0.16,1.17,0.33,2.05,0.51c1.19,0.27,2.15,0.53,2.89,0.79
				c0.74,0.27,1.38,0.67,1.91,1.21s0.8,1.26,0.8,2.16c0,1.29-0.5,2.32-1.5,3.08c-1,0.76-2.37,1.13-4.12,1.13
				C412.24,389.25,411.1,389.01,410.02,388.52z"/>
			<path class="st0" d="M431.83,376.62h-4.68v-1.64h11.23v1.64h-4.68v12.4h-1.87V376.62z"/>
			<path class="st0" d="M450.46,388.43c-0.93-0.55-1.67-1.31-2.22-2.3c-0.55-0.99-0.83-2.13-0.83-3.43v-7.72h1.87v7.72
				c0,0.92,0.19,1.75,0.56,2.5c0.38,0.75,0.88,1.34,1.53,1.77c0.65,0.43,1.35,0.64,2.12,0.64c0.76,0,1.47-0.21,2.12-0.64
				c0.65-0.43,1.16-1.02,1.53-1.77s0.56-1.58,0.56-2.5v-7.72h1.87v7.72c0,1.29-0.28,2.44-0.83,3.43c-0.55,0.99-1.29,1.76-2.22,2.3
				s-1.94,0.82-3.03,0.82C452.4,389.25,451.39,388.97,450.46,388.43z"/>
			<path class="st0" d="M469.77,374.98h5.61c1.51,0,2.79,0.3,3.85,0.91c1.05,0.61,1.84,1.44,2.37,2.49
				c0.53,1.05,0.79,2.26,0.79,3.61s-0.27,2.56-0.79,3.61c-0.53,1.05-1.32,1.88-2.37,2.49c-1.05,0.61-2.34,0.91-3.85,0.91h-5.61
				V374.98z M475.15,387.38c1.08,0,2.02-0.22,2.83-0.67s1.44-1.07,1.88-1.88s0.67-1.75,0.67-2.83c0-1.08-0.22-2.02-0.67-2.83
				s-1.07-1.44-1.88-1.88s-1.75-0.67-2.83-0.67h-3.51v10.76H475.15z"/>
			<path class="st0" d="M491.66,374.98h10.06v1.64h-8.19v4.21h7.95v1.64h-7.95v4.91h8.42v1.64h-10.29V374.98z"/>
			<path class="st0" d="M513.79,379.19v9.82h-1.87v-14.5l10.29,10.29v-9.82h1.87v14.5L513.79,379.19z"/>
			<path class="st0" d="M537.78,376.62h-4.68v-1.64h11.23v1.64h-4.68v12.4h-1.87V376.62z"/>
			<path class="st0" d="M553.36,374.98h1.87v14.03h-1.87V374.98z"/>
		</g>
	</g>
</g>
</svg>
