<?xml version="1.0" encoding="utf-8"?>
<!-- Generator: Adobe Illustrator 24.1.1, SVG Export Plug-In . SVG Version: 6.00 Build 0)  -->
<svg version="1.1" id="Livello_1" xmlns="http://www.w3.org/2000/svg" xmlns:xlink="http://www.w3.org/1999/xlink" x="0px" y="0px"
	 viewBox="0 0 841.89 595.28" style="enable-background:new 0 0 841.89 595.28;" xml:space="preserve">
<style type="text/css">
	.st0{fill:#615F59;}
	.st1{fill:#790E17;}
	.st2{fill:#C21A26;}
	.st3{fill:#E8A99B;}
</style>
<g>
	<g>
		<path class="st0" d="M265.88,279.6c-0.01,6.45-1.63,12.56-4.8,18.34c-3.16,5.79-7.48,10.42-12.94,13.9
			c-5.46,3.48-11.42,5.22-17.86,5.21c-6.45-0.01-12.4-1.76-17.85-5.25c-5.45-3.49-9.76-8.13-12.91-13.93
			c-3.15-5.79-4.72-11.91-4.71-18.35l-15.79-0.02c-0.01,9.08,2.31,17.56,6.98,25.46c4.66,7.9,10.93,14.19,18.82,18.86
			c7.89,4.68,16.37,7.02,25.44,7.03c9.08,0.01,17.56-2.31,25.46-6.98c7.9-4.66,14.18-10.93,18.86-18.82
			c4.68-7.89,7.06-16.37,7.07-25.44v-69.05l-15.78-0.05V279.6z"/>
		<polygon class="st0" points="318.4,315.5 318.4,274.06 385.48,274.06 385.48,260.25 318.4,260.25 318.4,224.74 387.51,224.74
			387.51,210.92 302.61,210.92 302.61,329.3 389.37,329.3 389.37,315.5 		"/>
	</g>
	<polygon class="st1" points="448.64,261.12 437.21,253.66 437.21,207.1 424.98,224.8 424.98,272.35 432.77,275.7 407.34,299.05
		407.34,330.27 419.94,332.7 453.64,284.9 453.64,256.39 	"/>
	<g>
		<polygon class="st2" points="591.88,315.5 591.88,274.06 658.97,274.06 658.97,260.25 591.88,260.25 591.88,224.74 661,224.74
			661,210.92 576.1,210.92 576.1,329.3 662.85,329.3 662.85,315.5 		"/>
		<polygon class="st2" points="437.21,207.1 437.21,253.66 448.64,261.12 453.64,256.39 501.03,284.94 539.51,246.44 539.51,329.07
			555.25,329.07 555.25,207.1 496.24,266.1 		"/>
		<polygon class="st2" points="419.94,332.7 504.16,327.9 525.88,310.64 453.64,284.9 		"/>
	</g>
	<polygon class="st3" points="453.64,256.39 453.64,284.9 525.88,310.64 525.83,299.88 	"/>
</g>
</svg>
